<?xml version="1.0" encoding="UTF-8"?>
<svg version="1.1" xmlns="http://www.w3.org/2000/svg" width="218" height="231">
<path d="M0 0 C13.96343311 8.65989063 21.68320079 20.77889784 27 36 C27.29132813 35.17757812 27.58265625 34.35515625 27.8828125 33.5078125 C34.08466084 16.61850224 42.35415013 4.38741909 58.9375 -3.375 C68.84105061 -5.39613278 77.71074486 -3.88329848 86.328125 1.4375 C92.04775274 5.84373174 94.53237266 11.00338663 96 18 C97.73663273 33.45004294 91.17033297 44.89609409 81.9140625 56.6484375 C74.06337306 65.74034266 64.52495008 72.78368873 55 80 C55.88300781 80.23074219 56.76601562 80.46148437 57.67578125 80.69921875 C66.98383802 83.22869068 75.37323645 86.66674089 84 91 C84.20625 90.175 84.4125 89.35 84.625 88.5 C87.82227754 80.36147535 93.27665259 75.00916818 101 71 C103.0625 70.36328125 103.0625 70.36328125 104.9375 69.9375 C105.948125 69.628125 106.95875 69.31875 108 69 C109.31068333 66.55711372 109.31068333 66.55711372 110 64 C113 62 113 62 116 62.1875 C120.43283582 63.3880597 120.43283582 63.3880597 122 66 C122.6414791 71.98713826 122.6414791 71.98713826 120.8125 74.875 C118.40683822 76.36816938 116.84869415 76.8675026 114 77 C113.071875 76.443125 112.14375 75.88625 111.1875 75.3125 C108.26185026 73.74612751 108.26185026 73.74612751 106.12109375 74.44140625 C97.509702 78.46904349 91.66572903 84.29389357 88 93 C89.65 94.32 91.3 95.64 93 97 C93.70962891 96.41992188 93.70962891 96.41992188 94.43359375 95.828125 C99.99027133 91.45210601 105.75056327 87.75545542 112.8125 86.5 C115.21301223 86.17518321 115.21301223 86.17518321 116.875 83.875 C119 82 119 82 122.625 82.125 C126 83 126 83 128 85 C128.43522403 88.9170163 128.55092928 91.15241649 126.375 94.5 C124 96 124 96 121 95.9375 C118 95 118 95 116.15234375 93.34765625 C114.04356709 91.70057544 114.04356709 91.70057544 111.37890625 92.40625 C105.83549095 94.55903264 101.76426563 96.32711852 98 101 C98.72703125 101.73089844 98.72703125 101.73089844 99.46875 102.4765625 C111.02930849 114.70407629 117.53055423 128.27802945 117.42236328 145.17675781 C116.90543235 161.38744147 109.28821587 173.82209243 98 185 C91.43355271 191.13771018 84.17307256 195.29522108 76.22265625 199.3359375 C72.96902113 200.94039926 72.96902113 200.94039926 70 203 C70.23976562 203.556875 70.47953125 204.11375 70.7265625 204.6875 C73.05399178 210.67810058 73.15661007 213.94095265 71 220 C69.875 222.5 69.875 222.5 69 224 C67.35 223.67 65.7 223.34 64 223 C64.875 218.25 64.875 218.25 66 216 C66.2426639 211.63204981 66.12232587 208.80844247 64 205 C57.29225357 206.17855732 50.63818061 207.47648314 44 209 C44.33 209.66 44.66 210.32 45 211 C45.56002785 217.49632312 44.31757072 221.43122058 41 227 C39.68 227 38.36 227 37 227 C37.91970803 220.29927007 37.91970803 220.29927007 38.6875 217.4375 C39.09934269 214.22512703 38.07949998 212.01515513 37 209 C36.15236084 208.96241577 36.15236084 208.96241577 35.28759766 208.92407227 C32.73316258 208.80820044 30.1791045 208.68543463 27.625 208.5625 C26.73554687 208.52318359 25.84609375 208.48386719 24.9296875 208.44335938 C24.07890625 208.40146484 23.228125 208.35957031 22.3515625 208.31640625 C21.17327881 208.26141968 21.17327881 208.26141968 19.97119141 208.20532227 C18 208 18 208 16 207 C16.350625 207.825 16.70125 208.65 17.0625 209.5 C18.3330833 214.24351097 18.35413968 218.41233227 16.03515625 222.84375 C15.08746079 224.27372464 14.05086918 225.64403977 13 227 C11.02 226.01 11.02 226.01 9 225 C9.33 223.989375 9.66 222.97875 10 221.9375 C11.23948887 217.56387498 11.60576368 213.42771443 10.4921875 208.96484375 C8.09192882 205.8042937 4.55096785 205.25946267 0.875 204.25 C-0.25615234 203.91935547 -0.25615234 203.91935547 -1.41015625 203.58203125 C-3.26942894 203.04072401 -5.13423927 202.51850298 -7 202 C-6.95359375 202.71285156 -6.9071875 203.42570313 -6.859375 204.16015625 C-6.60933537 210.79513638 -7.08938207 214.5941458 -11 220 C-11.66 220.66 -12.32 221.32 -13 222 C-15.125 221.625 -15.125 221.625 -17 221 C-16.48993904 218.347683 -15.79452677 216.6601789 -14.375 214.3125 C-12.57529849 209.97685545 -12.76363522 206.4994288 -14 202 C-15.93037737 198.03827167 -17.6795676 196.26937415 -21.5625 194.25 C-30.41025385 189.21993586 -41.05099152 180.83496667 -45.19335938 171.23413086 C-48.0100297 164.87760497 -50.98705712 161.47078508 -57.29402161 158.76060486 C-61.42920531 157.17599893 -65.60523482 155.7547828 -69.8125 154.375 C-72.38724231 153.48636148 -74.95764784 152.5861011 -77.52726746 151.68276978 C-79.11818471 151.12829609 -80.71294366 150.58469656 -82.3117218 150.05331421 C-87.78780486 148.21219514 -87.78780486 148.21219514 -90 146 C-86.33900273 144.36175959 -82.67684439 142.72614432 -79.01367188 141.09277344 C-77.16737449 140.26890858 -75.32195777 139.44307104 -73.4765625 138.6171875 C-72.290625 138.08867187 -71.1046875 137.56015625 -69.8828125 137.015625 C-68.71371338 136.49073486 -67.54461426 135.96584473 -66.34008789 135.42504883 C-63.38084099 134.16248585 -60.42383028 133.11919669 -57.37890625 132.08984375 C-53.11446293 130.40798082 -51.46741495 128.57543208 -49.63354492 124.41650391 C-49.3626001 123.72218262 -49.09165527 123.02786133 -48.8125 122.3125 C-48.16592751 120.86530859 -47.51228882 119.42125315 -46.8515625 117.98046875 C-46.53993164 117.29001465 -46.22830078 116.59956055 -45.90722656 115.88818359 C-38.28946498 100.03356355 -21.17094643 89.64575793 -5.125 84 C-3.08790981 83.31947756 -1.04787274 82.64735187 1 82 C-1.43379987 80.04865249 -3.87030169 78.10179683 -6.32421875 76.17578125 C-21.56103852 64.16261922 -37.40118586 50.76456639 -42 31 C-42.94189503 22.49411125 -42.66540566 14.38799367 -38 7 C-28.1851916 -4.98561308 -13.22428397 -6.90149018 0 0 Z " fill="#040301" transform="translate(90,4)"/>
<path d="M0 0 C17.12155821 5.46499921 29.25597362 28.08919409 37.00976562 43.01708984 C44 57.0147929 44 57.0147929 44 61 C46.31 61 48.62 61 51 61 C50.01 61.99 50.01 61.99 49 63 C49.495 64.485 49.495 64.485 50 66 C48.99500868 68.62843884 48.55192629 69.72403685 46 71 C45.07215764 73.83110874 44.25594394 76.62283154 43.5 79.5 C43.18095703 80.66789062 43.18095703 80.66789062 42.85546875 81.859375 C33.76184244 115.55600255 35.72873912 150.82783299 49.21557617 182.95141602 C49.9809402 184.95022385 50.527147 186.91457444 51 189 C25.23623663 189.82555811 25.23623663 189.82555811 13 185 C13.04640625 185.71285156 13.0928125 186.42570313 13.140625 187.16015625 C13.39066463 193.79513638 12.91061793 197.5941458 9 203 C8.34 203.66 7.68 204.32 7 205 C4.875 204.625 4.875 204.625 3 204 C3.51006096 201.347683 4.20547323 199.6601789 5.625 197.3125 C7.42470151 192.97685545 7.23636478 189.4994288 6 185 C4.06962263 181.03827167 2.3204324 179.26937415 -1.5625 177.25 C-10.41025385 172.21993586 -21.05099152 163.83496667 -25.19335938 154.23413086 C-28.0100297 147.87760497 -30.98705712 144.47078508 -37.29402161 141.76060486 C-41.42920531 140.17599893 -45.60523482 138.7547828 -49.8125 137.375 C-52.38724231 136.48636148 -54.95764784 135.5861011 -57.52726746 134.68276978 C-59.11818471 134.12829609 -60.71294366 133.58469656 -62.3117218 133.05331421 C-67.78780486 131.21219514 -67.78780486 131.21219514 -70 129 C-66.33900273 127.36175959 -62.67684439 125.72614432 -59.01367188 124.09277344 C-57.16737449 123.26890858 -55.32195777 122.44307104 -53.4765625 121.6171875 C-52.290625 121.08867187 -51.1046875 120.56015625 -49.8828125 120.015625 C-48.12916382 119.22828979 -48.12916382 119.22828979 -46.34008789 118.42504883 C-43.38084099 117.16248585 -40.42383028 116.11919669 -37.37890625 115.08984375 C-33.11446293 113.40798082 -31.46741495 111.57543208 -29.63354492 107.41650391 C-29.3626001 106.72218262 -29.09165527 106.02786133 -28.8125 105.3125 C-28.16592751 103.86530859 -27.51228882 102.42125315 -26.8515625 100.98046875 C-26.53993164 100.29001465 -26.22830078 99.59956055 -25.90722656 98.88818359 C-17.63469264 81.67080541 0.95539209 71.80516679 18.13671875 65.71484375 C21 65 21 65 24 66 C24.495 64.515 24.495 64.515 25 63 C33.415 62.505 33.415 62.505 42 62 C35.3053068 46.23919638 28.38783296 30.97577779 17 18 C16.35289063 17.22140625 15.70578125 16.4428125 15.0390625 15.640625 C10.99505182 10.87732388 6.77378393 7.04444359 1.6875 3.41015625 C1.130625 2.94480469 0.57375 2.47945312 0 2 C0 1.34 0 0.68 0 0 Z " fill="#030201" transform="translate(70,21)"/>
<path d="M0 0 C14.39511741 0 28.16793305 8.0673059 39 17 C39.639375 17.47824219 40.27875 17.95648438 40.9375 18.44921875 C50.366709 25.79474094 58.30505966 38.06693517 60 50 C61.4255881 72.27658547 61.4255881 72.27658547 55.66796875 79.72265625 C52.96007368 81.79638385 50.52339406 81.52479334 47.21875 81.43359375 C43.75333971 80.75637449 42.18957052 78.64036445 40 76 C39.01 75.67 38.02 75.34 37 75 C37.95434391 78.81737564 38.91008928 79.93653361 42.1875 82.25 C45.77785141 84.12060326 48.9865717 84.6723732 53 85 C42.94910915 101.4469123 28.11020059 111.13095351 10 117 C8.00838124 117.38021813 6.00958663 117.73042131 4 118 C-0.8172143 107.04281172 -4.88967352 95.81405985 -7 84 C-7.185625 82.99582031 -7.37125 81.99164063 -7.5625 80.95703125 C-11.93195267 53.61760864 -7.74195028 26.33532268 0 0 Z " fill="#FDBE02" transform="translate(144,88)"/>
<path d="M0 0 C2.524865 1.46095242 4.77173702 3.04784303 7.05859375 4.85546875 C7.65671875 5.26539063 8.25484375 5.6753125 8.87109375 6.09765625 C23.46608678 16.97633161 29.4578108 35.85309628 33.05859375 52.85546875 C33.26355469 53.74363281 33.46851562 54.63179687 33.6796875 55.546875 C35.25152942 62.9941536 35.25800054 70.2669327 35.05859375 77.85546875 C32.74859375 77.85546875 30.43859375 77.85546875 28.05859375 77.85546875 C27.83308838 77.32816162 27.60758301 76.80085449 27.37524414 76.25756836 C17.86388955 54.17464256 5.94099001 29.19132588 -15.94140625 16.85546875 C-13.62549387 19.24857821 -11.31033543 21.54227708 -8.76953125 23.69921875 C7.21667691 37.34349833 18.5638657 56.32652289 26.05859375 75.85546875 C26.05859375 76.84546875 26.05859375 77.83546875 26.05859375 78.85546875 C23.99799311 79.22052391 21.93499743 79.5720759 19.87109375 79.91796875 C18.72253906 80.11519531 17.57398438 80.31242187 16.390625 80.515625 C7.6271989 81.40943282 1.63254006 76.00134593 -4.94140625 70.85546875 C-9.11332362 67.36936301 -13.02621352 63.62419384 -16.94140625 59.85546875 C-17.68261719 59.18902344 -18.42382812 58.52257813 -19.1875 57.8359375 C-29.03777424 48.7153132 -35.71510232 36.69730728 -36.31640625 23.16796875 C-36.01732695 16.1769902 -33.50289998 10.54828813 -28.7109375 5.46484375 C-20.71529764 -1.80712893 -10.32347031 -4.01696786 0 0 Z " fill="#E3F0F8" transform="translate(85.94140625,4.14453125)"/>
<path d="M0 0 C4.59435466 3.51333003 6.58356916 8.19677158 8.125 13.625 C9.499923 27.69564057 5.65165961 38.26721456 -3.12939453 49.18457031 C-10.67430078 58.19677021 -19.39631333 65.70882725 -28.875 72.625 C-30.07382813 73.52798828 -30.07382813 73.52798828 -31.296875 74.44921875 C-34.90496932 76.09472843 -38.30873554 75.94768482 -42.1875 75.8125 C-43.29834961 75.79219727 -43.29834961 75.79219727 -44.43164062 75.77148438 C-46.24641075 75.73635979 -48.06080288 75.68255972 -49.875 75.625 C-49.2812641 70.8008958 -47.84569974 66.65734012 -45.875 62.25 C-45.56594727 61.55664551 -45.25689453 60.86329102 -44.93847656 60.14892578 C-37.18158119 43.10912539 -27.35570702 28.45520038 -13.7734375 15.515625 C-11.81063563 13.76142387 -11.81063563 13.76142387 -10.875 11.625 C-30.14745879 27.39826934 -41.20769724 48.06796022 -50.875 70.625 C-51.205 70.625 -51.535 70.625 -51.875 70.625 C-51.98457031 69.45324219 -52.09414062 68.28148438 -52.20703125 67.07421875 C-53.19881288 56.63375887 -53.19881288 56.63375887 -55.5625 46.4375 C-56.86840423 42.04006738 -57.06822207 39.15924388 -55.875 34.625 C-55.65972656 33.76648437 -55.44445312 32.90796875 -55.22265625 32.0234375 C-51.30457987 18.33725363 -42.6226059 4.96357849 -30.1875 -2.3125 C-19.41937455 -8.11980714 -10.26569774 -4.90968153 0 0 Z " fill="#E3F0F8" transform="translate(174.875,7.375)"/>
<path d="M0 0 C-0.18030762 0.58193115 -0.36061523 1.1638623 -0.54638672 1.76342773 C-2.59922521 8.48439186 -4.41162616 15.24774926 -6.125 22.0625 C-6.38925781 23.08666016 -6.65351562 24.11082031 -6.92578125 25.16601562 C-14.738902 56.20036582 -11.04402845 89.75091292 1.21557617 118.95141602 C1.9809402 120.95022385 2.527147 122.91457444 3 125 C-0.70319892 124.8145961 -4.3985317 124.596155 -8.09375 124.29296875 C-11.79917845 123.95391261 -11.79917845 123.95391261 -14.71875 124.05078125 C-17.48280794 123.90965857 -18.72886142 123.62542271 -21 122 C-36.71801201 98.42298199 -39.39268061 66.52250115 -34.34423828 39.24511719 C-32.90160641 32.06962016 -31.1075444 25.01004015 -29 18 C-28.81711426 17.35417969 -28.63422852 16.70835938 -28.44580078 16.04296875 C-25.36813095 5.29100592 -25.36813095 5.29100592 -22.40625 2.49609375 C-15.73729358 -0.64134711 -7.22327608 -0.12430843 0 0 Z " fill="#FBBD04" transform="translate(118,85)"/>
<path d="M0 0 C13.96343311 8.65989063 21.68320079 20.77889784 27 36 C27.29132813 35.17757812 27.58265625 34.35515625 27.8828125 33.5078125 C34.08466084 16.61850224 42.35415013 4.38741909 58.9375 -3.375 C68.84105061 -5.39613278 77.71074486 -3.88329848 86.328125 1.4375 C92.04775274 5.84373174 94.53237266 11.00338663 96 18 C97.73663273 33.45004294 91.17033297 44.89609409 81.9140625 56.6484375 C75.84786986 63.67371197 68.87497402 70.05883983 61 75 C59.515 74.505 59.515 74.505 58 74 C60.8615982 71.02526884 63.87229916 68.47422733 67.125 65.9375 C77.51111172 57.46243283 89.22757973 45.98117114 91.78515625 32.1875 C92.68419205 23.03368098 92.39150121 16.14808659 88 8 C87.67 7.01 87.34 6.02 87 5 C84.69386454 3.87698886 84.69386454 3.87698886 82 3 C80.81470703 2.47019531 80.81470703 2.47019531 79.60546875 1.9296875 C71.6146729 -1.55579696 65.53697854 -2.1051553 57.2265625 0.96484375 C42.77350689 7.6842468 35.14611545 22.31028751 29.78515625 36.5078125 C28.86710031 40.59110606 29.22740911 43.95711385 30 48 C30.11738525 48.65613281 30.23477051 49.31226563 30.35571289 49.98828125 C30.72059928 51.97491221 31.1079228 53.95607099 31.5 55.9375 C32.59737836 61.61400504 33.48569473 67.23978097 34 73 C34.24492188 72.27039063 34.48984375 71.54078125 34.7421875 70.7890625 C41.49260297 51.93445376 52.28859138 35.52243463 66 21 C66.90685547 20.03126953 66.90685547 20.03126953 67.83203125 19.04296875 C69.17430306 17.64844305 70.58040108 16.31572583 72 15 C72.66 15 73.32 15 74 15 C72.4893322 18.62888679 70.36402524 20.7194323 67.5 23.375 C54.28110709 36.38467302 45.09061491 53.12608446 38.19140625 70.20703125 C37 73 37 73 35 76 C34.34 76 33.68 76 33 76 C32.34 76.66 31.68 77.32 31 78 C30.97421875 77.20980469 30.9484375 76.41960937 30.921875 75.60546875 C29.97510186 56.77759384 26.18309636 34.57173465 15 19 C14.40316406 18.14792969 13.80632812 17.29585937 13.19140625 16.41796875 C8.61168041 10.2717371 3.56877334 5.9323269 -3 2 C-3.61101562 1.6184375 -4.22203125 1.236875 -4.8515625 0.84375 C-10.82908065 -1.5037844 -19.08301284 -1.09011118 -25.03125 1.1328125 C-31.19592704 4.67935863 -35.65529151 8.6062119 -38.3125 15.3125 C-40.447969 26.76637918 -37.77870176 37.03347356 -31.625 46.9375 C-22.69902066 59.44377049 -9.86805258 72.06597371 4 79 C4 80.32 4 81.64 4 83 C2 83 2 83 0.1875 81.22265625 C-0.534375 80.48917969 -1.25625 79.75570312 -2 79 C-3.64620792 77.78429711 -5.31481572 76.59857191 -7 75.4375 C-21.83645339 64.74972199 -38.60544713 49.85060208 -42 31 C-42.73449422 21.43953419 -42.63249534 12.65709431 -36.33984375 4.97265625 C-25.87940488 -5.18707185 -12.59618063 -6.57369556 0 0 Z " fill="#0A0B0C" transform="translate(90,4)"/>
<path d="M0 0 C1 2 1 2 0.36328125 4.1171875 C0.01652344 5.02726562 -0.33023438 5.93734375 -0.6875 6.875 C-9.61892223 33.07798788 -9.32840119 59.09689674 0.109375 85.05078125 C1 88 1 88 0 90 C-11.61292073 80.39463206 -22.22067895 68.70055764 -24.7890625 53.26171875 C-26.10235378 39.18031776 -23.78903661 25.69961152 -14.72998047 14.41845703 C-10.22737459 9.12825096 -5.5341919 4.23320646 0 0 Z " fill="#F9BD05" transform="translate(64,102)"/>
<path d="M0 0 C4.43283582 1.2005597 4.43283582 1.2005597 6 3.8125 C6.6414791 9.79963826 6.6414791 9.79963826 4.8125 12.6875 C2.40683822 14.18066938 0.84869415 14.6800026 -2 14.8125 C-2.928125 14.255625 -3.85625 13.69875 -4.8125 13.125 C-7.73814974 11.55862751 -7.73814974 11.55862751 -9.87890625 12.25390625 C-16.84690476 15.51291142 -23.60448555 20.80925144 -27 27.8125 C-28.32 27.4825 -29.64 27.1525 -31 26.8125 C-29.68305909 20.07814306 -25.05698243 15.26954928 -19.5625 11.4375 C-16.74827992 9.6643512 -14.30135559 8.48549012 -11.0625 7.75 C-10.051875 7.440625 -9.04125 7.13125 -8 6.8125 C-6.68931667 4.36961372 -6.68931667 4.36961372 -6 1.8125 C-3 -0.1875 -3 -0.1875 0 0 Z " fill="#010101" transform="translate(206,66.1875)"/>
<path d="M0 0 C0.33 0 0.66 0 1 0 C1.0593128 5.00204603 1.05021936 9.9981516 1 15 C1.01160156 16.27617187 1.01160156 16.27617187 1.0234375 17.578125 C0.5233006 29.85421244 -9.79435718 40.21091496 -18.26953125 48.1171875 C-25.71456963 54.46337279 -36.10911694 61.66237581 -46 63 C-46.495 61.515 -46.495 61.515 -47 60 C-45.71029297 59.50693359 -45.71029297 59.50693359 -44.39453125 59.00390625 C-29.41643134 52.97673191 -17.12303015 44.5463175 -8 31 C-8.88751953 30.85304687 -8.88751953 30.85304687 -9.79296875 30.703125 C-14.7836374 29.75872441 -18.44614275 28.88703137 -22 25 C-22.8125 22.25 -22.8125 22.25 -23 20 C-20.15191222 20.40686968 -19.21720316 20.71329182 -17.4375 23.0625 C-13.4611272 26.22320658 -8.89531881 25.30384737 -4 25 C-1.61005524 16.65773999 -0.4053172 8.66540227 0 0 Z " fill="#130A04" transform="translate(204,143)"/>
<path d="M0 0 C3.22083055 1.87393777 5.495267 3.21180307 6.546875 6.9375 C6.81529425 10.87431571 6.24172835 12.65572023 3.9375 15.9375 C0.40585211 18.41716767 -1.6869821 19.07701818 -6 19 C-8.80189446 17.23358828 -10.51524911 15.96950178 -12 13 C-12.68839635 6.00130378 -12.68839635 6.00130378 -9.9375 2 C-6.20163958 -0.54356454 -4.44000949 -0.77894903 0 0 Z " fill="#080401" transform="translate(169,140)"/>
<path d="M0 0 C-1.5106678 3.62888679 -3.63597476 5.7194323 -6.5 8.375 C-19.71889291 21.38467302 -28.90938509 38.12608446 -35.80859375 55.20703125 C-37 58 -37 58 -39 61 C-39.66 61 -40.32 61 -41 61 C-41.66 61.66 -42.32 62.32 -43 63 C-43.02578125 62.20980469 -43.0515625 61.41960937 -43.078125 60.60546875 C-43.49357661 52.34364697 -44.75199402 44.62057683 -46.62792969 36.57495117 C-47.6096261 32.28655901 -48.22038934 28.4362242 -48 24 C-47.34 24 -46.68 24 -46 24 C-43.0873936 35.29695394 -41.10476397 46.38544197 -40 58 C-39.75507812 57.27039063 -39.51015625 56.54078125 -39.2578125 55.7890625 C-32.50739703 36.93445376 -21.71140862 20.52243463 -8 6 C-7.39542969 5.35417969 -6.79085937 4.70835938 -6.16796875 4.04296875 C-2.27649297 0 -2.27649297 0 0 0 Z " fill="#16181A" transform="translate(164,19)"/>
<path d="M0 0 C17.12155821 5.46499921 29.25597362 28.08919409 37.00976562 43.01708984 C44 57.0147929 44 57.0147929 44 61 C46.31 61 48.62 61 51 61 C50.34 61.66 49.68 62.32 49 63 C49.495 64.485 49.495 64.485 50 66 C49.0625 68.1875 49.0625 68.1875 48 70 C47.34 70 46.68 70 46 70 C46.66 68.02 47.32 66.04 48 64 C45.29144546 64.3106694 42.58316612 64.62347745 39.875 64.9375 C39.11445312 65.02451172 38.35390625 65.11152344 37.5703125 65.20117188 C33.35670423 65.6915487 29.178805 66.25902978 25 67 C25.495 65.515 25.495 65.515 26 64 C27.91595482 63.66259915 29.83279722 63.33023588 31.75 63 C32.81734375 62.814375 33.8846875 62.62875 34.984375 62.4375 C38 62 38 62 42 62 C35.3053068 46.23919638 28.38783296 30.97577779 17 18 C16.35289063 17.22140625 15.70578125 16.4428125 15.0390625 15.640625 C10.99505182 10.87732388 6.77378393 7.04444359 1.6875 3.41015625 C1.130625 2.94480469 0.57375 2.47945312 0 2 C0 1.34 0 0.68 0 0 Z " fill="#16191A" transform="translate(70,21)"/>
<path d="M0 0 C1.91147937 2.29377525 3.73807503 4.59738391 5.3671875 7.1015625 C13.91642591 20.1593545 26.92190765 32.96095382 41 40 C41 41.32 41 42.64 41 44 C39 44 39 44 37.1875 42.22265625 C36.465625 41.48917969 35.74375 40.75570312 35 40 C33.35379208 38.78429711 31.68518428 37.59857191 30 36.4375 C18.00602336 27.79736503 4.08080242 16.30151792 -1 2 C-0.67 1.34 -0.34 0.68 0 0 Z " fill="#0E1011" transform="translate(53,43)"/>
<path d="M0 0 C0.33 0 0.66 0 1 0 C0.67 14.52 0.34 29.04 0 44 C0.66 44 1.32 44 2 44 C2.02578125 44.77601563 2.0515625 45.55203125 2.078125 46.3515625 C2.47312341 53.87448673 3.77690692 60.53484745 6.0625 67.7109375 C7.0384081 71.13474842 7.57098292 74.46954692 8 78 C8.66 78 9.32 78 10 78 C10.99 81.465 10.99 81.465 12 85 C11.01 85.495 11.01 85.495 10 86 C-1.06762483 58.25715375 -5.32478185 29.66664174 0 0 Z " fill="#D0AB25" transform="translate(137,118)"/>
<path d="M0 0 C0.66 0.33 1.32 0.66 2 1 C0.79883652 3.40232696 -0.35949666 4.04928244 -2.5625 5.5625 C-12.70364254 13.11402936 -19.01788543 23.05365628 -23 35 C-23.99 35 -24.98 35 -26 35 C-24.11689416 22.71388261 -16.07862876 12.05603596 -7 4 C-4.70558432 2.42595257 -2.51818318 1.22911322 0 0 Z " fill="#110902" transform="translate(64,100)"/>
<path d="M0 0 C-0.33 0.99 -0.66 1.98 -1 3 C-1.556875 2.7834375 -2.11375 2.566875 -2.6875 2.34375 C-10.62660241 -0.55294953 -16.7609187 -0.97273316 -24.765625 1.953125 C-30.74159178 4.75305349 -35.51858398 9.23849548 -40 14 C-40.99 13.67 -41.98 13.34 -43 13 C-32.09797432 -1.22317258 -16.93631981 -7.02543637 0 0 Z " fill="#050608" transform="translate(172,3)"/>
<path d="M0 0 C2.80592657 2.44493017 4.11593244 4.99579963 5.625 8.375 C6.05039063 9.31085938 6.47578125 10.24671875 6.9140625 11.2109375 C10.84226465 21.29991713 10.33647525 34.99057426 6.94921875 45.15234375 C5.85140218 47.28924597 4.93263946 48.55946781 3 50 C0.73828125 50.29296875 0.73828125 50.29296875 -1.6875 50.1875 C-2.89986328 50.14689453 -2.89986328 50.14689453 -4.13671875 50.10546875 C-4.75160156 50.07066406 -5.36648437 50.03585938 -6 50 C-6 47.16032769 -5.59732819 44.76264289 -5 42 C-4.67 43.32 -4.34 44.64 -4 46 C-3.34 46 -2.68 46 -2 46 C-2 46.66 -2 47.32 -2 48 C0.31 47.34 2.62 46.68 5 46 C5.33 42.04 5.66 38.08 6 34 C6.66 34 7.32 34 8 34 C7.35054056 23.46226334 7.35054056 23.46226334 6 13 C5.34 13 4.68 13 4 13 C4 11.35 4 9.7 4 8 C3.34 8 2.68 8 2 8 C1.34 5.36 0.68 2.72 0 0 Z " fill="#E2BA28" transform="translate(195,119)"/>
<path d="M0 0 C0.33 0 0.66 0 1 0 C1.24580738 20.72975563 1.24580738 20.72975563 -1 26.625 C-4.02260799 28.70304299 -6.62500173 27.91945746 -10.13671875 27.359375 C-10.75160156 27.24078125 -11.36648437 27.1221875 -12 27 C-12 27.99 -12 28.98 -12 30 C-16.96702804 28.72936492 -19.71893937 26.95657311 -23 23 C-23 22.01 -23 21.02 -23 20 C-20.15191222 20.40686968 -19.21720316 20.71329182 -17.4375 23.0625 C-13.4611272 26.22320658 -8.89531881 25.30384737 -4 25 C-1.61005524 16.65773999 -0.4053172 8.66540227 0 0 Z " fill="#1E1301" transform="translate(204,143)"/>
<path d="M0 0 C0.33 0 0.66 0 1 0 C1.0093457 0.98057373 1.01869141 1.96114746 1.02832031 2.97143555 C1.23235142 21.31318176 1.4897324 39.10927186 6 57 C6.33360779 58.33326469 6.66701336 59.66658004 7 61 C6.01 61.495 6.01 61.495 5 62 C4.69255859 60.66195312 4.69255859 60.66195312 4.37890625 59.296875 C4.10949219 58.12640625 3.84007813 56.9559375 3.5625 55.75 C3.29566406 54.58984375 3.02882813 53.4296875 2.75390625 52.234375 C2.36102808 50.54886657 1.96375844 48.86385522 1.51855469 47.19140625 C-0.93836294 36.80850011 -1.2909668 26.36896127 -1.1875 15.75 C-1.18685547 14.44675781 -1.18621094 13.14351562 -1.18554688 11.80078125 C-1.14097377 2.28194754 -1.14097377 2.28194754 0 0 Z " fill="#E2B728" transform="translate(106,128)"/>
<path d="M0 0 C2.06442754 3.09664131 3.49574975 6.18824591 5.0625 9.5625 C7.95351031 15.59601502 11.43906016 20.2309166 16.1796875 25.01171875 C18 27 18 27 19 30 C13.19571207 28.91720442 10.13609947 24.96904933 6.78662109 20.31347656 C5.48105744 18.40038329 4.23248762 16.46089624 3 14.5 C2.38475464 13.55713135 2.38475464 13.55713135 1.75708008 12.59521484 C-0.97474616 8.06711123 -1.31481522 5.31404484 0 0 Z " fill="#140B01" transform="translate(40,159)"/>
<path d="M0 0 C1 2 1 2 0.2578125 4.64453125 C-0.11601563 5.68996094 -0.48984375 6.73539062 -0.875 7.8125 C-2.1975711 11.53512145 -3.32315386 15.10453447 -4 19 C-4.33 19 -4.66 19 -5 19 C-5.19294408 14.17639811 -4.75747614 10.50353262 -3 6 C-6.0109362 8.0072908 -6.63016497 8.83884224 -8 12 C-8.66 12 -9.32 12 -10 12 C-10.33 12.99 -10.66 13.98 -11 15 C-12 16 -13 17 -14 18 C-15.17574711 20.09989652 -15.17574711 20.09989652 -16 22 C-16.66 22 -17.32 22 -18 22 C-18.33 23.98 -18.66 25.96 -19 28 C-19.99 28.33 -20.98 28.66 -22 29 C-18.3396395 16.92257865 -10.13495747 7.32096251 0 0 Z " fill="#DAB424" transform="translate(64,102)"/>
<path d="M0 0 C8.17482953 0.32470594 14.59694567 2.55287333 22 6 C21.34 6.66 20.68 7.32 20 8 C17.375 7.625 17.375 7.625 15 7 C15 6.34 15 5.68 15 5 C14.360625 4.87625 13.72125 4.7525 13.0625 4.625 C9.02988724 3.8020178 5.01576093 2.90114025 1 2 C1 3.98 1 5.96 1 8 C0.34 8 -0.32 8 -1 8 C-1 10.64 -1 13.28 -1 16 C-1.66 16 -2.32 16 -3 16 C-2.96519531 16.61488281 -2.93039063 17.22976562 -2.89453125 17.86328125 C-2.86746094 18.67152344 -2.84039062 19.47976562 -2.8125 20.3125 C-2.77769531 21.11300781 -2.74289063 21.91351563 -2.70703125 22.73828125 C-3.06636755 25.51235745 -3.99132446 26.15813489 -6 28 C-5.42100187 21.40474547 -4.20265263 15.3108382 -2.4375 8.9375 C-2.20353516 8.07189453 -1.96957031 7.20628906 -1.72851562 6.31445312 C-1.1582666 4.20802305 -0.57998166 2.10377111 0 0 Z " fill="#DAB11F" transform="translate(144,88)"/>
<path d="M0 0 C9.85865673 1.14589597 20.42763593 4.27096186 28 11 C28.33 11.99 28.66 12.98 29 14 C26.06842406 12.86373026 23.18863886 11.646384 20.328125 10.34375 C13.28560326 7.14970874 6.69310226 4.23639143 -1 3 C-0.67 2.01 -0.34 1.02 0 0 Z " fill="#1F1405" transform="translate(146,85)"/>
<path d="M0 0 C-1.51431166 3.62941 -3.64943929 5.76284414 -6.5 8.4375 C-12.3450926 14.13774337 -17.16585729 20.4379084 -22 27 C-22.66 26.67 -23.32 26.34 -24 26 C-19.21543253 18.76930318 -13.95276673 12.29910952 -8 6 C-7.39414063 5.35289063 -6.78828125 4.70578125 -6.1640625 4.0390625 C-2.27670188 0 -2.27670188 0 0 0 Z " fill="#111417" transform="translate(164,19)"/>
<path d="M0 0 C-0.66 2.31 -1.32 4.62 -2 7 C-2.33 7 -2.66 7 -3 7 C-3 5.35 -3 3.7 -3 2 C-5.56871195 2.17507085 -8.12431443 2.38853554 -10.6875 2.625 C-11.7693457 2.69267578 -11.7693457 2.69267578 -12.87304688 2.76171875 C-16.92317745 3.16858118 -19.24116493 3.74173001 -21.9375 6.90625 C-23.72959944 9.59439915 -25.00952878 11.93854349 -26 15 C-27 13 -27 13 -26.43359375 10.6875 C-23.74017659 3.42055488 -23.74017659 3.42055488 -20.25 1.4375 C-19.1775 1.293125 -18.105 1.14875 -17 1 C-15.1128125 0.690625 -15.1128125 0.690625 -13.1875 0.375 C-8.79256009 -0.1095485 -4.41587281 -0.09199735 0 0 Z " fill="#DFB72A" transform="translate(118,85)"/>
<path d="M0 0 C0.55171875 0.30679688 1.1034375 0.61359375 1.671875 0.9296875 C4.20540121 2.09442941 6.51171762 2.62057956 9.25 3.125 C10.14203125 3.29257813 11.0340625 3.46015625 11.953125 3.6328125 C12.96632812 3.81457031 12.96632812 3.81457031 14 4 C13.04737966 5.48285242 12.08771595 6.96118201 11.125 8.4375 C10.59132812 9.26121094 10.05765625 10.08492187 9.5078125 10.93359375 C8 13 8 13 6 14 C5.85304687 13.07767578 5.85304687 13.07767578 5.703125 12.13671875 C4.90270932 7.03099222 4.90270932 7.03099222 1.875 3.0625 C1.25625 2.711875 0.6375 2.36125 0 2 C0 1.34 0 0.68 0 0 Z " fill="#EEBA13" transform="translate(183,169)"/>
<path d="M0 0 C0.66 0 1.32 0 2 0 C1.7834375 1.11955078 1.7834375 1.11955078 1.5625 2.26171875 C-0.70628838 16.07927018 -0.18273785 30.04304532 0 44 C-2.41696343 40.37455485 -2.28963662 37.70451861 -2.265625 33.515625 C-2.26753845 32.78180603 -2.2694519 32.04798706 -2.27142334 31.29193115 C-2.27278381 29.7385626 -2.26909697 28.18518262 -2.26074219 26.63183594 C-2.25010157 24.27252088 -2.26060991 21.91397792 -2.2734375 19.5546875 C-2.27211468 18.041665 -2.26954977 16.52864298 -2.265625 15.015625 C-2.26967346 14.31745667 -2.27372192 13.61928833 -2.27789307 12.89996338 C-2.23382123 8.2127191 -1.44538751 4.40792953 0 0 Z " fill="#E7BC2A" transform="translate(57,121)"/>
<path d="M0 0 C0.33 0 0.66 0 1 0 C1 4.62 1 9.24 1 14 C-1.31 14 -3.62 14 -6 14 C-6.66 12.02 -7.32 10.04 -8 8 C-5.10765685 7.17361624 -3.11257569 7 0 7 C0 4.69 0 2.38 0 0 Z " fill="#DAE3E8" transform="translate(120,68)"/>
<path d="M0 0 C2.24226443 3.36339665 3.42592747 6.76340552 4.6875 10.5625 C4.92533203 11.24763672 5.16316406 11.93277344 5.40820312 12.63867188 C5.99980093 14.40652572 6.5063209 16.20234149 7 18 C6.67 18.66 6.34 19.32 6 20 C4.68412059 18.87895467 3.37239647 17.75303035 2.0625 16.625 C1.33160156 15.99851563 0.60070313 15.37203125 -0.15234375 14.7265625 C-2 13 -2 13 -3 11 C-2.01 10.67 -1.02 10.34 0 10 C0 6.7 0 3.4 0 0 Z " fill="#DFB724" transform="translate(58,172)"/>
<path d="M0 0 C1 3 1 3 0.0625 5.1875 C-0.288125 5.785625 -0.63875 6.38375 -1 7 C-1.66 7 -2.32 7 -3 7 C-2.34 5.02 -1.68 3.04 -1 1 C-3.70855454 1.3106694 -6.41683388 1.62347745 -9.125 1.9375 C-10.26582031 2.06801758 -10.26582031 2.06801758 -11.4296875 2.20117188 C-15.64329577 2.6915487 -19.821195 3.25902978 -24 4 C-23.67 3.01 -23.34 2.02 -23 1 C-15.04579145 -0.67968453 -8.05686696 -1.1736381 0 0 Z " fill="#160C01" transform="translate(119,84)"/>
<path d="M0 0 C3.37875704 4.50500939 3.37875704 4.50500939 3.36328125 8.046875 C3.36263672 8.81 3.36199219 9.573125 3.36132812 10.359375 C3.34521484 11.14828125 3.32910156 11.9371875 3.3125 12.75 C3.31572266 13.5234375 3.31894531 14.296875 3.32226562 15.09375 C3.27367297 20.35942694 2.45005116 24.9392637 1 30 C0.67 30 0.34 30 0 30 C0 20.1 0 10.2 0 0 Z " fill="#060603" transform="translate(204,134)"/>
<path d="M0 0 C4.95775858 1.51253652 8.09864667 4.42198587 11.8125 7.875 C12.7087207 8.66970703 12.7087207 8.66970703 13.62304688 9.48046875 C15.33203125 11.0546875 15.33203125 11.0546875 18 14 C18 15.32 18 16.64 18 18 C17.360625 17.34 16.72125 16.68 16.0625 16 C11.58360927 11.52110927 6.89083941 7.05284308 1.72265625 3.3828125 C1.15417969 2.92648438 0.58570312 2.47015625 0 2 C0 1.34 0 0.68 0 0 Z " fill="#1B1E21" transform="translate(70,21)"/>
<path d="M0 0 C2.84094967 0.40584995 3.87153481 0.86297046 5.875 3 C8.52218926 5.49147225 10.4426338 5.67660307 14 6 C13.01 6.33 12.02 6.66 11 7 C11 7.99 11 8.98 11 10 C6.03297196 8.72936492 3.28106063 6.95657311 0 3 C0 2.01 0 1.02 0 0 Z " fill="#2C1B00" transform="translate(181,163)"/>
<path d="M0 0 C1.5 1.3125 1.5 1.3125 3 3 C3 3.99 3 4.98 3 6 C3.639375 6.45375 4.27875 6.9075 4.9375 7.375 C7.55403774 9.43651458 7.50481605 10.79954797 8 14 C6.53426066 13.09522263 5.07764244 12.17565859 3.625 11.25 C2.81289062 10.73953125 2.00078125 10.2290625 1.1640625 9.703125 C-1.08555679 7.9326665 -1.95906848 6.63092581 -3 4 C-2.01 2.68 -1.02 1.36 0 0 Z " fill="#030201" transform="translate(176,92)"/>
<path d="M0 0 C0.33 0.66 0.66 1.32 1 2 C2.65 2 4.3 2 6 2 C5.33501617 6.38889325 3.81242323 9.9811485 2 14 C1.67 14 1.34 14 1 14 C0.67 9.38 0.34 4.76 0 0 Z " fill="#E4E9EB" transform="translate(122,64)"/>
<path d="M0 0 C1 2 1 2 0.2578125 4.64453125 C-0.11601563 5.68996094 -0.48984375 6.73539062 -0.875 7.8125 C-2.1975711 11.53512145 -3.32315386 15.10453447 -4 19 C-4.33 19 -4.66 19 -5 19 C-5.19294408 14.17639811 -4.75747614 10.50353262 -3 6 C-4.32 6.99 -5.64 7.98 -7 9 C-7.66 8.67 -8.32 8.34 -9 8 C-6.03 5.36 -3.06 2.72 0 0 Z " fill="#DAB831" transform="translate(64,102)"/>
<path d="M0 0 C1.67588141 2.51382212 2.94030311 4.82947288 4.1875 7.5625 C4.55230469 8.34753906 4.91710937 9.13257813 5.29296875 9.94140625 C5.52628906 10.62074219 5.75960937 11.30007812 6 12 C5.67 12.66 5.34 13.32 5 14 C-1.93 13.505 -1.93 13.505 -9 13 C-9 12.67 -9 12.34 -9 12 C-5.04 12 -1.08 12 3 12 C2.67 10.35 2.34 8.7 2 7 C1.01 6.67 0.02 6.34 -1 6 C-0.67 4.02 -0.34 2.04 0 0 Z " fill="#DDB62C" transform="translate(115,196)"/>
<path d="M0 0 C1.17755859 -0.02126953 1.17755859 -0.02126953 2.37890625 -0.04296875 C4.4375 0.1875 4.4375 0.1875 6.4375 2.1875 C4.49659174 4.12840826 0.96456098 3.58669435 -1.625 3.75 C-2.91535156 3.83378906 -4.20570312 3.91757812 -5.53515625 4.00390625 C-6.53417969 4.06449219 -7.53320312 4.12507812 -8.5625 4.1875 C-8.2325 3.1975 -7.9025 2.2075 -7.5625 1.1875 C-4.76092552 0.25364184 -2.90802197 0.02395405 0 0 Z " fill="#111213" transform="translate(75.5625,-0.1875)"/>
<path d="M0 0 C7.80326294 0.39016315 13.92923365 2.75773658 21 6 C20.34 6.66 19.68 7.32 19 8 C16.375 7.625 16.375 7.625 14 7 C14 6.34 14 5.68 14 5 C13.360625 4.896875 12.72125 4.79375 12.0625 4.6875 C7.93522674 3.76096927 3.99357051 2.38339371 0 1 C0 0.67 0 0.34 0 0 Z " fill="#E5BD26" transform="translate(145,88)"/>
<path d="M0 0 C0.33 1.32 0.66 2.64 1 4 C1.66 4 2.32 4 3 4 C3 4.66 3 5.32 3 6 C4.98 5.34 6.96 4.68 9 4 C8.67 5.32 8.34 6.64 8 8 C5.03 8 2.06 8 -1 8 C-1 5.16032769 -0.59732819 2.76264289 0 0 Z " fill="#EDBB17" transform="translate(190,161)"/>
<path d="M0 0 C0.33 0 0.66 0 1 0 C1.2137731 7.68395543 1.01670288 14.56340812 -1 22 C-1.33 22 -1.66 22 -2 22 C-2.30071865 14.44862068 -1.42625566 7.41143564 0 0 Z " fill="#311F02" transform="translate(58,124)"/>
<path d="M0 0 C-1.23263349 3.69790046 -2.20052451 3.9354846 -5.5625 5.6875 C-6.80193359 6.34298828 -6.80193359 6.34298828 -8.06640625 7.01171875 C-8.70449219 7.33785156 -9.34257813 7.66398438 -10 8 C-10.33 7.01 -10.66 6.02 -11 5 C-9.73461631 4.15841464 -8.46246221 3.32700252 -7.1875 2.5 C-6.47980469 2.0359375 -5.77210937 1.571875 -5.04296875 1.09375 C-3 0 -3 0 0 0 Z " fill="#090B0C" transform="translate(67,2)"/>
<path d="M0 0 C0.33 0 0.66 0 1 0 C1.20496094 1.25296875 1.40992187 2.5059375 1.62109375 3.796875 C1.89314274 5.44793091 2.16528293 7.09897179 2.4375 8.75 C2.57220703 9.575 2.70691406 10.4 2.84570312 11.25 C2.97783203 12.04921875 3.10996094 12.8484375 3.24609375 13.671875 C3.36654053 14.4050293 3.4869873 15.13818359 3.61108398 15.89355469 C3.99191676 17.95621959 4.46878895 19.97137516 5 22 C4.34 22.33 3.68 22.66 3 23 C2.79503906 22.10796875 2.59007813 21.2159375 2.37890625 20.296875 C1.97478516 18.54117188 1.97478516 18.54117188 1.5625 16.75 C1.29566406 15.58984375 1.02882813 14.4296875 0.75390625 13.234375 C0.32828699 11.40840223 -0.11663742 9.58593717 -0.625 7.78125 C-1.19504005 5.07355975 -0.54773496 2.67781534 0 0 Z " fill="#D7AF24" transform="translate(108,167)"/>
<path d="M0 0 C3.21043882 1.38188453 5.04936365 2.92421903 7.25 5.625 C8.03117188 6.57246094 8.03117188 6.57246094 8.828125 7.5390625 C9.40820312 8.26222656 9.40820312 8.26222656 10 9 C9.67 9.66 9.34 10.32 9 11 C3.83823591 8.34936438 1.81588958 5.44766873 0 0 Z " fill="#E4B721" transform="translate(184,107)"/>
<path d="M0 0 C6.09411765 2.14117647 6.09411765 2.14117647 8 5 C7.6875 7.6875 7.6875 7.6875 7 10 C5.68 9.34 4.36 8.68 3 8 C3 7.34 3 6.68 3 6 C3.66 6 4.32 6 5 6 C4.34 5.34 3.68 4.68 3 4 C2.67 3.34 2.34 2.68 2 2 C1.34 2 0.68 2 0 2 C0 1.34 0 0.68 0 0 Z " fill="#F2BF14" transform="translate(176,101)"/>
<path d="M0 0 C1.98 0.99 1.98 0.99 4 2 C4 3.32 4 4.64 4 6 C4.99 6.33 5.98 6.66 7 7 C7.33 7.99 7.66 8.98 8 10 C8.66 10.66 9.32 11.32 10 12 C8.68 12 7.36 12 6 12 C4.02 8.04 2.04 4.08 0 0 Z " fill="#E1B827" transform="translate(91,195)"/>
<path d="M0 0 C2.97 0 5.94 0 9 0 C8.67 1.32 8.34 2.64 8 4 C7.34 4 6.68 4 6 4 C6 3.34 6 2.68 6 2 C4.02 2.33 2.04 2.66 0 3 C0 2.01 0 1.02 0 0 Z " fill="#060201" transform="translate(192,170)"/>
<path d="M0 0 C4.455 1.98 4.455 1.98 9 4 C9 4.33 9 4.66 9 5 C6.03 4.67 3.06 4.34 0 4 C-0.33 3.01 -0.66 2.02 -1 1 C-0.67 0.67 -0.34 0.34 0 0 Z " fill="#120F04" transform="translate(156,87)"/>
<path d="M0 0 C1.35158203 0.15275391 1.35158203 0.15275391 2.73046875 0.30859375 C3.41753906 0.39238281 4.10460937 0.47617188 4.8125 0.5625 C4.8125 0.8925 4.8125 1.2225 4.8125 1.5625 C0.1925 2.2225 -4.4275 2.8825 -9.1875 3.5625 C-8.8575 2.5725 -8.5275 1.5825 -8.1875 0.5625 C-4.98734144 -0.50421952 -3.30205706 -0.38595472 0 0 Z " fill="#291B0B" transform="translate(104.1875,84.4375)"/>
<path d="M0 0 C3.47132095 1.40929697 4.88093274 2.90605083 6.75 6.125 C7.39195313 7.21167969 7.39195313 7.21167969 8.046875 8.3203125 C8.51867187 9.15175781 8.51867187 9.15175781 9 10 C8.01 10 7.02 10 6 10 C4.39453125 8.3203125 4.39453125 8.3203125 2.8125 6.125 C2.01779297 5.04605469 2.01779297 5.04605469 1.20703125 3.9453125 C0 2 0 2 0 0 Z " fill="#0F1215" transform="translate(88,38)"/>
<path d="M0 0 C0.33 0 0.66 0 1 0 C1 2.31 1 4.62 1 7 C-0.65 7.66 -2.3 8.32 -4 9 C-2.94124926 5.59687262 -1.99097846 2.98646769 0 0 Z " fill="#DFE9EC" transform="translate(126,26)"/>
<path d="M0 0 C-0.99 0.33 -1.98 0.66 -3 1 C-3.33 1.99 -3.66 2.98 -4 4 C-5.65 4.33 -7.3 4.66 -9 5 C-9.33 4.01 -9.66 3.02 -10 2 C-8.71211992 1.46987262 -7.41953322 0.9511671 -6.125 0.4375 C-5.40570313 0.14746094 -4.68640625 -0.14257812 -3.9453125 -0.44140625 C-2 -1 -2 -1 0 0 Z " fill="#1B1201" transform="translate(167,201)"/>
<path d="M0 0 C1.98 0 3.96 0 6 0 C3.45543849 2.96865509 0.51005335 4.3619751 -3 6 C-3.66 5.34 -4.32 4.68 -5 4 C-3.68 4 -2.36 4 -1 4 C-0.67 2.68 -0.34 1.36 0 0 Z " fill="#E7B81C" transform="translate(171,193)"/>
<path d="M0 0 C1.1725131 0.95117134 2.33787015 1.91117009 3.5 2.875 C4.47453125 3.67550781 4.47453125 3.67550781 5.46875 4.4921875 C5.9740625 4.98976562 6.479375 5.48734375 7 6 C7 6.66 7 7.32 7 8 C5.1875 7.8125 5.1875 7.8125 3 7 C0 2.82142857 0 2.82142857 0 0 Z " fill="#261A01" transform="translate(52,181)"/>
<path d="M0 0 C1.10844919 3.32534757 0.84454356 5.62182575 0 9 C1.32 9.66 2.64 10.32 4 11 C1.69 11 -0.62 11 -3 11 C-2.44894091 7.0507432 -1.61064629 3.65079826 0 0 Z " fill="#C1C6C6" transform="translate(128,72)"/>
<path d="M0 0 C0.33 1.32 0.66 2.64 1 4 C1.66 4 2.32 4 3 4 C3.66 6.31 4.32 8.62 5 11 C4.01 11.495 4.01 11.495 3 12 C-0.42857143 4.71428571 -0.42857143 4.71428571 0 0 Z " fill="#E8BC1D" transform="translate(144,192)"/>
<path d="M0 0 C0 0.33 0 0.66 0 1 C-0.86625 1.2475 -1.7325 1.495 -2.625 1.75 C-6.18302254 3.06778613 -8.9226155 4.80186822 -12 7 C-9.69656113 0.26687101 -6.85869086 -0.25881852 0 0 Z " fill="#321E01" transform="translate(169,140)"/>
<path d="M0 0 C0 0.66 0 1.32 0 2 C0.99 2.33 1.98 2.66 3 3 C2.67 3.99 2.34 4.98 2 6 C1.278125 5.360625 0.55625 4.72125 -0.1875 4.0625 C-2.98191184 2.01326465 -4.61663274 1.38667054 -8 1 C-8 0.67 -8 0.34 -8 0 C-4.71303767 -0.79953138 -3.28976808 -1.09658936 0 0 Z " fill="#ECBC1F" transform="translate(172,139)"/>
<path d="M0 0 C3.71599191 -0.20086443 4.77208445 -0.1519437 8 2 C8.6875 4.625 8.6875 4.625 9 7 C7.4972763 6.02501855 5.99788037 5.04490611 4.5 4.0625 C3.6646875 3.51722656 2.829375 2.97195312 1.96875 2.41015625 C1.3190625 1.94480469 0.669375 1.47945313 0 1 C0 0.67 0 0.34 0 0 Z " fill="#211300" transform="translate(175,99)"/>
<path d="M0 0 C2.88437779 1.29299694 4.87219421 2.65941363 7 5 C6.67 5.99 6.34 6.98 6 8 C1.125 3.375 1.125 3.375 0 0 Z " fill="#232629" transform="translate(82,31)"/>
<path d="M0 0 C4.0042343 3.49087093 5.62671065 5.64951939 6 11 C2.66442368 8.0094833 0.84916079 5.06815373 -1 1 C-0.67 0.67 -0.34 0.34 0 0 Z " fill="#E8BD21" transform="translate(46,169)"/>
<path d="M0 0 C0.66 0.33 1.32 0.66 2 1 C0.79618552 3.49361571 -0.45428722 5.68143083 -2 8 C-2.99 7.67 -3.98 7.34 -5 7 C-3.35 4.69 -1.7 2.38 0 0 Z " fill="#0F1113" transform="translate(170,57)"/>
<path d="M0 0 C1.64826111 2.96687001 2.44271087 5.65626525 3 9 C1.68 9 0.36 9 -1 9 C-1.09765625 2.84765625 -1.09765625 2.84765625 -1 1 C-0.67 0.67 -0.34 0.34 0 0 Z " fill="#D7DDE1" transform="translate(115,45)"/>
<path d="M0 0 C2.31 0 4.62 0 7 0 C5.02 2.97 5.02 2.97 3 6 C2.34 5.01 1.68 4.02 1 3 C1.33 2.67 1.66 2.34 2 2 C1.34 1.34 0.68 0.68 0 0 Z " fill="#E5C235" transform="translate(190,173)"/>
<path d="M0 0 C0.99 0 1.98 0 3 0 C2.67 0.99 2.34 1.98 2 3 C1.34 3 0.68 3 0 3 C-0.33 3.99 -0.66 4.98 -1 6 C-1.66 6 -2.32 6 -3 6 C-2.42655063 3.13275314 -2.1385485 2.1385485 0 0 Z " fill="#E7B918" transform="translate(54,111)"/>
<path d="M0 0 C0.99 0.33 1.98 0.66 3 1 C1.68 3.31 0.36 5.62 -1 8 C-1.66 7.67 -2.32 7.34 -3 7 C-1.125 2.25 -1.125 2.25 0 0 Z " fill="#1D2123" transform="translate(139,46)"/>
<path d="M0 0 C0.33 0.99 0.66 1.98 1 3 C-0.98 4.32 -2.96 5.64 -5 7 C-5.66 6.67 -6.32 6.34 -7 6 C-4.69 4.02 -2.38 2.04 0 0 Z " fill="#D8DFE4" transform="translate(143,6)"/>
<path d="M0 0 C1.65 1.32 3.3 2.64 5 4 C4.34 4.66 3.68 5.32 3 6 C1.35 4.35 -0.3 2.7 -2 1 C-1.34 0.67 -0.68 0.34 0 0 Z " fill="#120902" transform="translate(59,188)"/>
<path d="M0 0 C2 3 2 3 1.625 5.1875 C1.41875 5.785625 1.2125 6.38375 1 7 C-0.65 5.02 -2.3 3.04 -4 1 C-2.68 0.67 -1.36 0.34 0 0 Z " fill="#EEF7FC" transform="translate(70,59)"/>
<path d="M0 0 C2.97 0.33 5.94 0.66 9 1 C5.5647952 3.29013653 4.014669 3.17842973 0 3 C0 2.01 0 1.02 0 0 Z " fill="#2F2B2B" transform="translate(112,81)"/>
</svg>
